<?xml version="1.0" encoding="UTF-8" standalone="no"?>
<svg enable-background="new 0 0 24 24" height="24px" viewBox="0 0 24 24" width="24px" fill="#000000" version="1.1"
   id="svg8" sodipodi:docname="backstage-group-icon-white.svg" inkscape:version="1.3.1 (91b66b0783, 2023-11-16)"
   xmlns:inkscape="http://www.inkscape.org/namespaces/inkscape"
   xmlns:sodipodi="http://sodipodi.sourceforge.net/DTD/sodipodi-0.dtd" xmlns="http://www.w3.org/2000/svg"
   xmlns:svg="http://www.w3.org/2000/svg">
   <defs>
      <style>
         .cls-1 {
            fill: #7df3e1
         }
      </style>
   </defs>
   <g id="g8" class="cls-1">
      <g id="g2" class="cls-1" />
      <g id="g7" class="cls-1">
         <g id="g3" class="cls-1">
            <path d="M16.67,13.13C18.04,14.06,19,15.32,19,17v3h4v-3 C23,14.82,19.43,13.53,16.67,13.13z"
               fill-rule="evenodd" id="path2" class="cls-1" />
         </g>
         <g id="g4" class="cls-1">
            <circle cx="9" cy="8" fill-rule="evenodd" r="4" id="circle3" class="cls-1" />
         </g>
         <g id="g5" class="cls-1">
            <path
               d="M15,12c2.21,0,4-1.79,4-4c0-2.21-1.79-4-4-4c-0.47,0-0.91,0.1-1.33,0.24 C14.5,5.27,15,6.58,15,8s-0.5,2.73-1.33,3.76C14.09,11.9,14.53,12,15,12z"
               fill-rule="evenodd" id="path4" class="cls-1" />
         </g>
         <g id="g6" class="cls-1">
            <path d="M9,13c-2.67,0-8,1.34-8,4v3h16v-3C17,14.34,11.67,13,9,13z" fill-rule="evenodd" id="path5"
               class="cls-1" />
         </g>
      </g>
   </g>
</svg>