<?xml version="1.0" encoding="UTF-8" standalone="no"?>
<svg
   xmlns:dc="http://purl.org/dc/elements/1.1/"
   xmlns:cc="http://creativecommons.org/ns#"
   xmlns:rdf="http://www.w3.org/1999/02/22-rdf-syntax-ns#"
   xmlns:svg="http://www.w3.org/2000/svg"
   xmlns="http://www.w3.org/2000/svg"
   xmlns:sodipodi="http://sodipodi.sourceforge.net/DTD/sodipodi-0.dtd"
   xmlns:inkscape="http://www.inkscape.org/namespaces/inkscape"
   width="100%"
   height="100%"
   viewBox="0 0 64 64"
   version="1.1"
   xml:space="preserve"
   style="fill-rule:evenodd;clip-rule:evenodd;stroke-linejoin:round;stroke-miterlimit:2;"
   id="svg94"
   sodipodi:docname="access-building.svg"
   inkscape:version="1.0.1 (3bc2e813f5, 2020-09-07)"><style
   id="style102">
#g150 { 
    stroke-width:0px;
    fill:#000000;
    stroke:#FFFFFF;
}
</style><metadata
   id="metadata100"><rdf:RDF><cc:Work
       rdf:about=""><dc:format>image/svg+xml</dc:format><dc:type
         rdf:resource="http://purl.org/dc/dcmitype/StillImage" /></cc:Work></rdf:RDF></metadata><defs
   id="defs98" /><sodipodi:namedview
   pagecolor="#ffffff"
   bordercolor="#666666"
   borderopacity="1"
   objecttolerance="10"
   gridtolerance="10"
   guidetolerance="10"
   inkscape:pageopacity="0"
   inkscape:pageshadow="2"
   inkscape:window-width="1920"
   inkscape:window-height="1017"
   id="namedview96"
   showgrid="false"
   inkscape:zoom="13.28125"
   inkscape:cx="30.117647"
   inkscape:cy="42.308374"
   inkscape:window-x="-8"
   inkscape:window-y="-8"
   inkscape:window-maximized="1"
   inkscape:current-layer="svg94" />
    
    
    
    
    
    
    
    
    <g
   id="g150"
   style=""><g
     transform="matrix(1.06667,0,0,1,-2.13333,58)"
     id="g4">
        <rect
   x="2"
   y="2"
   width="60"
   height="4"
   id="rect2" />
    </g><path
     d="M33,32L27,32C26.204,32 25.441,32.316 24.879,32.879C24.316,33.441 24,34.204 24,35C24,42.598 24,62 24,62L33,62L33,32ZM31,35L26,35L26,39L31,39L31,35Z"
     id="path6" /><g
     transform="matrix(1,0,0,1,8,0)"
     id="g10">
        <path
   d="M32,35C32,34.204 31.684,33.441 31.121,32.879C30.559,32.316 29.796,32 29,32C26.73,32 24,32 24,32L24,62L32,62L32,35ZM30,35L26,35L26,39L30,39L30,35Z"
   id="path8" />
    </g><g
     transform="matrix(-1,0,0,1,63,4.29026e-11)"
     id="g44">
        <g
   transform="matrix(-0.166667,0,0,4.25,56.3333,18.5)"
   id="g14">
            <path
   d="M62,2.471C62,2.346 60.736,2.226 58.485,2.138C56.235,2.05 53.183,2 50,2C39.543,2 24.457,2 14,2C10.817,2 7.765,2.05 5.515,2.138C3.264,2.226 2,2.346 2,2.471C2,3.528 2,6 2,6L62,6L62,2.471Z"
   id="path12" />
        </g>
        <g
   transform="matrix(-0.25,0,0,0.75,59.5,24.5)"
   id="g18">
            <path
   d="M62,4.309C62,2.984 59.079,1.859 55.144,1.67C46.943,1.275 34.308,0.667 34.308,0.667C34.308,0.667 18.52,1.318 9.017,1.71C5.009,1.876 2,3.011 2,4.357C2,5.225 2,6 2,6L62,6L62,4.309Z"
   id="path16" />
        </g>
        <g
   transform="matrix(0.5,0,0,2.125,44,-63.25)"
   id="g22">
            <path
   d="M24,50L16,50L16,57.059C16,57.308 16.421,57.548 17.172,57.724C17.922,57.901 18.939,58 20,58C20,58 20,58 20,58C21.061,58 22.078,57.901 22.828,57.724C23.579,57.548 24,57.308 24,57.059C24,54.944 24,50 24,50Z"
   id="path20" />
        </g>
        <g
   transform="matrix(0.5,0,0,2.125,38,-63.25)"
   id="g26">
            <path
   d="M24,50L16,50L16,57.059C16,57.308 16.421,57.548 17.172,57.724C17.922,57.901 18.939,58 20,58C20,58 20,58 20,58C21.061,58 22.078,57.901 22.828,57.724C23.579,57.548 24,57.308 24,57.059C24,54.944 24,50 24,50Z"
   id="path24" />
        </g>
        <g
   transform="matrix(0.5,0,0,2.125,47,-78.25)"
   id="g30">
            <path
   d="M24,50L16,50L16,57.059C16,57.308 16.421,57.548 17.172,57.724C17.922,57.901 18.939,58 20,58C20,58 20,58 20,58C21.061,58 22.078,57.901 22.828,57.724C23.579,57.548 24,57.308 24,57.059C24,54.944 24,50 24,50Z"
   id="path28" />
        </g>
        <g
   transform="matrix(-1,0,0,1,62,0)"
   id="g34">
            <rect
   x="15"
   y="28"
   width="3"
   height="7"
   id="rect32" />
        </g>
        <g
   transform="matrix(0.12941,0.482963,-2.05259,0.54999,151.524,-4.41912)"
   id="g38">
            <path
   d="M24,50L16,50L16,57.059C16,57.308 16.421,57.548 17.172,57.724C17.922,57.901 18.939,58 20,58C20,58 20,58 20,58C21.061,58 22.078,57.901 22.828,57.724C23.579,57.548 24,57.308 24,57.059C24,54.944 24,50 24,50Z"
   id="path36" />
        </g>
        <g
   transform="matrix(1.66667,0,0,1.66667,20.6667,-49.3333)"
   id="g42">
            <circle
   cx="17"
   cy="41"
   r="3"
   id="circle40" />
        </g>
    </g><g
     transform="matrix(1,0,0,1,1.00653,4.29026e-11)"
     id="g78">
        <g
   transform="matrix(-0.166667,0,0,4.25,56.3333,18.5)"
   id="g48">
            <path
   d="M62,2.471C62,2.346 60.736,2.226 58.485,2.138C56.235,2.05 53.183,2 50,2C39.543,2 24.457,2 14,2C10.817,2 7.765,2.05 5.515,2.138C3.264,2.226 2,2.346 2,2.471C2,3.528 2,6 2,6L62,6L62,2.471Z"
   id="path46" />
        </g>
        <g
   transform="matrix(-0.25,0,0,0.75,59.5,24.5)"
   id="g52">
            <path
   d="M62,4.309C62,2.984 59.079,1.859 55.144,1.67C46.943,1.275 34.308,0.667 34.308,0.667C34.308,0.667 18.52,1.318 9.017,1.71C5.009,1.876 2,3.011 2,4.357C2,5.225 2,6 2,6L62,6L62,4.309Z"
   id="path50" />
        </g>
        <g
   transform="matrix(0.5,0,0,2.125,44,-63.25)"
   id="g56">
            <path
   d="M24,50L16,50L16,57.059C16,57.308 16.421,57.548 17.172,57.724C17.922,57.901 18.939,58 20,58C20,58 20,58 20,58C21.061,58 22.078,57.901 22.828,57.724C23.579,57.548 24,57.308 24,57.059C24,54.944 24,50 24,50Z"
   id="path54" />
        </g>
        <g
   transform="matrix(0.5,0,0,2.125,38,-63.25)"
   id="g60">
            <path
   d="M24,50L16,50L16,57.059C16,57.308 16.421,57.548 17.172,57.724C17.922,57.901 18.939,58 20,58C20,58 20,58 20,58C21.061,58 22.078,57.901 22.828,57.724C23.579,57.548 24,57.308 24,57.059C24,54.944 24,50 24,50Z"
   id="path58" />
        </g>
        <g
   transform="matrix(0.5,0,0,2.125,47,-78.25)"
   id="g64">
            <path
   d="M24,50L16,50L16,57.059C16,57.308 16.421,57.548 17.172,57.724C17.922,57.901 18.939,58 20,58C20,58 20,58 20,58C21.061,58 22.078,57.901 22.828,57.724C23.579,57.548 24,57.308 24,57.059C24,54.944 24,50 24,50Z"
   id="path62" />
        </g>
        <g
   transform="matrix(-1,0,0,1,62,0)"
   id="g68">
            <rect
   x="15"
   y="28"
   width="3"
   height="7"
   id="rect66" />
        </g>
        <g
   transform="matrix(0.12941,0.482963,-2.05259,0.54999,151.524,-4.41912)"
   id="g72">
            <path
   d="M24,50L16,50L16,57.059C16,57.308 16.421,57.548 17.172,57.724C17.922,57.901 18.939,58 20,58C20,58 20,58 20,58C21.061,58 22.078,57.901 22.828,57.724C23.579,57.548 24,57.308 24,57.059C24,54.944 24,50 24,50Z"
   id="path70" />
        </g>
        <g
   transform="matrix(1.66667,0,0,1.66667,20.6667,-49.3333)"
   id="g76">
            <circle
   cx="17"
   cy="41"
   r="3"
   id="circle74" />
        </g>
    </g><g
     transform="matrix(0.857143,0,0,1,3.57143,0)"
     id="g82">
        <rect
   x="18"
   y="39"
   width="7"
   height="3"
   id="rect80" />
    </g><g
     transform="matrix(3.42857,0,0,1,-21.7143,0)"
     id="g86">
        <rect
   x="18"
   y="39"
   width="7"
   height="3"
   id="rect84" />
    </g><g
     transform="matrix(0.285714,0,0,1,-5.14286,0)"
     id="g90">
        <rect
   x="18"
   y="39"
   width="7"
   height="3"
   id="rect88" />
    </g><rect
     x="33"
     y="34"
     width="6"
     height="6"
     id="rect92" /></g>
</svg>
