<?xml version="1.0" encoding="UTF-8" standalone="no"?>
<svg xmlns:dc="http://purl.org/dc/elements/1.1/" xmlns:cc="http://creativecommons.org/ns#"
     xmlns:rdf="http://www.w3.org/1999/02/22-rdf-syntax-ns#" xmlns:svg="http://www.w3.org/2000/svg"
     xmlns="http://www.w3.org/2000/svg" xmlns:sodipodi="http://sodipodi.sourceforge.net/DTD/sodipodi-0.dtd"
     xmlns:inkscape="http://www.inkscape.org/namespaces/inkscape" width="100%" height="100%" viewBox="0 0 64 64"
     version="1.1" xml:space="preserve"
     style="fill-rule:evenodd;clip-rule:evenodd;stroke-linejoin:round;stroke-miterlimit:2;" id="svg50"
     sodipodi:docname="parking-overflow.svg" inkscape:version="1.0.1 (3bc2e813f5, 2020-09-07)">
     <style id="style58">
          #group1 {
               stroke-width: 0px;
               fill: #000000;
               stroke: #FFFFFF;
          }
     </style>
     <metadata id="metadata56">
          <rdf:RDF>
               <cc:Work rdf:about="">
                    <dc:format>image/svg+xml</dc:format>
                    <dc:type rdf:resource="http://purl.org/dc/dcmitype/StillImage" />
               </cc:Work>
          </rdf:RDF>
     </metadata>
     <defs id="defs54" />
     <sodipodi:namedview pagecolor="#ffffff" bordercolor="#666666" borderopacity="1" objecttolerance="10"
          gridtolerance="10" guidetolerance="10" inkscape:pageopacity="0" inkscape:pageshadow="2"
          inkscape:window-width="1920" inkscape:window-height="1017" id="namedview52" showgrid="false"
          inkscape:zoom="6.640625" inkscape:cx="16.850394" inkscape:cy="37.84498" inkscape:window-x="-8"
          inkscape:window-y="-8" inkscape:window-maximized="1" inkscape:current-layer="svg50" />









     <g id="group1" style="">
          <g transform="matrix(1.06667,0,0,1,-2.13333,-2)" id="g4">
               <rect x="2" y="2" width="60" height="4" id="rect2" />
          </g>
          <g transform="matrix(1.06667,0,0,1,-2.13333,58)" id="g8">
               <rect x="2" y="2" width="60" height="4" id="rect6" />
          </g>
          <g transform="matrix(1,0,0,1,2,2.02082)" id="g12">
               <path d="M42,46L42,48L62,48L62,52L48,52L48,56C48,57.105 47.105,58 46,58L42,58C40.895,58 40,57.105 40,56L40,52L38,52L38,32L48,16L62,16L62,20L50,20L42,32L62,30L62,34L42,36L42,44L62,44L62,46L42,46Z"
                    id="path10" />
          </g>
          <g transform="matrix(-1,0,0,1,69,1.02082)" id="g16">
               <circle cx="17" cy="41" r="3" id="circle14" />
          </g>
          <g transform="matrix(-0.666667,0,0,0.666667,58.3333,14.6875)" id="g20">
               <circle cx="17" cy="41" r="3" id="circle18" />
          </g>
          <g transform="matrix(1,0,0,1,3.36062,-8)" id="g24">
               <path d="M25,32C25,33.104 25.896,34 27,34C28.104,34 29,33.104 29,32L33.639,32C33.639,33.104 34.536,34 35.639,34C36.743,34 37.639,33.104 37.639,32L41.639,32C41.639,35.311 38.951,38 35.639,38C33.944,38 32.411,37.295 31.32,36.162C30.228,37.295 28.696,38 27,38C24.542,38 22.426,36.518 21.5,34.4C20.574,36.518 18.458,38 16,38C14.464,38 13.062,37.421 12,36.471C10.938,37.421 9.536,38 8,38C6.464,38 5.062,37.421 4,36.471C2.938,37.421 1.536,38 0,38C-3.311,38 -6,35.311 -6,32L-2,32C-2,33.104 -1.104,34 0,34C1.104,34 2,33.104 2,32L6,32L6,32.026C6.014,33.118 6.905,34 8,34C9.104,34 10,33.104 10,32L14,32L14,32.026C14.014,33.118 14.905,34 16,34C17.104,34 18,33.104 18,32L25,32Z"
                    id="path22" />
          </g>
          <g transform="matrix(-1,1.22465e-16,-1.22465e-16,-1,73.0007,64)" id="g36">
               <g transform="matrix(1,0,0,1,11.0104,-26.0208)" id="g28">
                    <path d="M44,30C44,33.311 41.311,36 38,36C34.689,36 32,33.311 32,30L36,30C36,31.104 36.896,32 38,32C39.104,32 40,31.104 40,30L44,30Z"
                         id="path26" />
               </g>
               <path d="M55.876,8.069L60.405,12.616L57.576,15.444L53.036,10.886C54.204,10.202 55.183,9.231 55.876,8.069Z"
                    id="path30" />
               <path d="M42.124,8.069C42.817,9.23 43.796,10.202 44.964,10.886L40.425,15.425L37.596,12.596L42.124,8.069Z"
                    id="path32" />
               <path d="M47,11.727C47.639,11.892 48.309,11.979 49,11.979C49.691,11.979 50.361,11.892 51,11.727L51,18L47,18L47,11.727Z"
                    id="path34" />
          </g>
          <g transform="matrix(1,0,0,1,9,-6)" id="g40">
               <path d="M44,30C44,33.311 41.311,36 38,36C34.689,36 32,33.311 32,30L36,30C36,31.104 36.896,32 38,32C39.104,32 40,31.104 40,30L44,30Z"
                    id="path38" />
          </g>
          <g transform="matrix(1,0,0,1,17,-6)" id="g44">
               <path d="M44,30C44,33.311 41.311,36 38,36C34.689,36 32,33.311 32,30L36,30C36,31.104 36.896,32 38,32C39.104,32 40,31.104 40,30L44,30Z"
                    id="path42" />
          </g>
          <g transform="matrix(1,0,0,1,25,-6)" id="g48">
               <path d="M44,30C44,33.311 41.311,36 38,36C34.689,36 32,33.311 32,30L36,30C36,31.104 36.896,32 38,32C39.104,32 40,31.104 40,30L44,30Z"
                    id="path46" />
          </g>
     </g>
</svg>