<?xml version="1.0" encoding="UTF-8" standalone="no"?>
<svg
   xmlns:dc="http://purl.org/dc/elements/1.1/"
   xmlns:cc="http://creativecommons.org/ns#"
   xmlns:rdf="http://www.w3.org/1999/02/22-rdf-syntax-ns#"
   xmlns:svg="http://www.w3.org/2000/svg"
   xmlns="http://www.w3.org/2000/svg"
   xmlns:sodipodi="http://sodipodi.sourceforge.net/DTD/sodipodi-0.dtd"
   xmlns:inkscape="http://www.inkscape.org/namespaces/inkscape"
   width="100%"
   height="100%"
   viewBox="0 0 64 64"
   version="1.1"
   xml:space="preserve"
   style="fill-rule:evenodd;clip-rule:evenodd;stroke-linejoin:round;stroke-miterlimit:2;"
   id="svg64"
   sodipodi:docname="lift.svg"
   inkscape:version="1.0.1 (3bc2e813f5, 2020-09-07)"><style
   id="style72">
#group1 { 
    fill:#000000;
    stroke:#FFFFFF;
    stroke-width:0px;
}
</style><metadata
   id="metadata70"><rdf:RDF><cc:Work
       rdf:about=""><dc:format>image/svg+xml</dc:format><dc:type
         rdf:resource="http://purl.org/dc/dcmitype/StillImage" /></cc:Work></rdf:RDF></metadata><defs
   id="defs68" /><sodipodi:namedview
   pagecolor="#ffffff"
   bordercolor="#666666"
   borderopacity="1"
   objecttolerance="10"
   gridtolerance="10"
   guidetolerance="10"
   inkscape:pageopacity="0"
   inkscape:pageshadow="2"
   inkscape:window-width="1920"
   inkscape:window-height="1017"
   id="namedview66"
   showgrid="false"
   inkscape:zoom="6.640625"
   inkscape:cx="2.6170135"
   inkscape:cy="40.697068"
   inkscape:window-x="-8"
   inkscape:window-y="-8"
   inkscape:window-maximized="1"
   inkscape:current-layer="svg64" />
    
    
    <g
   id="group1"
   style=""><g
     transform="matrix(1,0,0,1,1,0)"
     id="g30">
        <g
   transform="matrix(0.166667,0,0,4.25,34.6667,18.5)"
   id="g4">
            <path
   d="M62,2.471C62,2.346 60.736,2.226 58.485,2.138C56.235,2.05 53.183,2 50,2C39.543,2 24.457,2 14,2C10.817,2 7.765,2.05 5.515,2.138C3.264,2.226 2,2.346 2,2.471C2,3.528 2,6 2,6L62,6L62,2.471Z"
   id="path2" />
        </g>
        <g
   transform="matrix(0.266667,0,0,0.75,31.4667,24.5)"
   id="g8">
            <path
   d="M62,4.354C62,3.009 59.183,1.875 55.43,1.708C46.601,1.316 32,0.667 32,0.667C32,0.667 17.399,1.316 8.57,1.708C4.817,1.875 2,3.009 2,4.354C2,5.223 2,6 2,6L62,6L62,4.354Z"
   id="path6" />
        </g>
        <g
   transform="matrix(-0.5,0,0,2.125,47,-63.25)"
   id="g12">
            <path
   d="M24,50L16,50L16,57.059C16,57.308 16.421,57.548 17.172,57.724C17.922,57.901 18.939,58 20,58C20,58 20,58 20,58C21.061,58 22.078,57.901 22.828,57.724C23.579,57.548 24,57.308 24,57.059C24,54.944 24,50 24,50Z"
   id="path10" />
        </g>
        <g
   transform="matrix(-0.5,0,0,2.125,53,-63.25)"
   id="g16">
            <path
   d="M24,50L16,50L16,57.059C16,57.308 16.421,57.548 17.172,57.724C17.922,57.901 18.939,58 20,58C20,58 20,58 20,58C21.061,58 22.078,57.901 22.828,57.724C23.579,57.548 24,57.308 24,57.059C24,54.944 24,50 24,50Z"
   id="path14" />
        </g>
        <g
   transform="matrix(-0.5,0,0,2.125,44,-78.25)"
   id="g20">
            <path
   d="M24,50L16,50L16,57.059C16,57.308 16.421,57.548 17.172,57.724C17.922,57.901 18.939,58 20,58C20,58 20,58 20,58C21.061,58 22.078,57.901 22.828,57.724C23.579,57.548 24,57.308 24,57.059C24,54.944 24,50 24,50Z"
   id="path18" />
        </g>
        <g
   transform="matrix(-0.5,1.11022e-16,4.71845e-16,2.125,56,-78.25)"
   id="g24">
            <path
   d="M24,50L16,50L16,57.059C16,57.308 16.421,57.548 17.172,57.724C17.922,57.901 18.939,58 20,58C20,58 20,58 20,58C21.061,58 22.078,57.901 22.828,57.724C23.579,57.548 24,57.308 24,57.059C24,54.944 24,50 24,50Z"
   id="path22" />
        </g>
        <g
   transform="matrix(-1.66667,0,0,1.66667,68.3333,-49.3333)"
   id="g28">
            <circle
   cx="17"
   cy="41"
   r="3"
   id="circle26" />
        </g>
    </g><g
     transform="matrix(1,0,0,1,2,0)"
     id="g60">
        <g
   transform="matrix(0.166667,0,0,4.25,15.6667,18.5)"
   id="g34">
            <path
   d="M62,2.471C62,2.346 60.736,2.226 58.485,2.138C56.235,2.05 53.183,2 50,2C39.543,2 24.457,2 14,2C10.817,2 7.765,2.05 5.515,2.138C3.264,2.226 2,2.346 2,2.471C2,3.528 2,6 2,6L62,6L62,2.471Z"
   id="path32" />
        </g>
        <g
   transform="matrix(0.266667,0,0,0.75,12.4667,24.5)"
   id="g38">
            <path
   d="M62,4.354C62,3.009 59.183,1.875 55.43,1.708C46.601,1.316 32,0.667 32,0.667C32,0.667 17.399,1.316 8.57,1.708C4.817,1.875 2,3.009 2,4.354C2,5.223 2,6 2,6L62,6L62,4.354Z"
   id="path36" />
        </g>
        <g
   transform="matrix(-0.5,0,0,2.125,28,-63.25)"
   id="g42">
            <path
   d="M24,50L16,50L16,57.059C16,57.308 16.421,57.548 17.172,57.724C17.922,57.901 18.939,58 20,58C20,58 20,58 20,58C21.061,58 22.078,57.901 22.828,57.724C23.579,57.548 24,57.308 24,57.059C24,54.944 24,50 24,50Z"
   id="path40" />
        </g>
        <g
   transform="matrix(-0.5,0,0,2.125,34,-63.25)"
   id="g46">
            <path
   d="M24,50L16,50L16,57.059C16,57.308 16.421,57.548 17.172,57.724C17.922,57.901 18.939,58 20,58C20,58 20,58 20,58C21.061,58 22.078,57.901 22.828,57.724C23.579,57.548 24,57.308 24,57.059C24,54.944 24,50 24,50Z"
   id="path44" />
        </g>
        <g
   transform="matrix(-0.5,0,0,2.125,25,-78.25)"
   id="g50">
            <path
   d="M24,50L16,50L16,57.059C16,57.308 16.421,57.548 17.172,57.724C17.922,57.901 18.939,58 20,58C20,58 20,58 20,58C21.061,58 22.078,57.901 22.828,57.724C23.579,57.548 24,57.308 24,57.059C24,54.944 24,50 24,50Z"
   id="path48" />
        </g>
        <g
   transform="matrix(-0.5,0,0,2.125,37,-78.25)"
   id="g54">
            <path
   d="M24,50L16,50L16,57.059C16,57.308 16.421,57.548 17.172,57.724C17.922,57.901 18.939,58 20,58C20,58 20,58 20,58C21.061,58 22.078,57.901 22.828,57.724C23.579,57.548 24,57.308 24,57.059C24,54.944 24,50 24,50Z"
   id="path52" />
        </g>
        <g
   transform="matrix(-1.66667,0,0,1.66667,49.3333,-49.3333)"
   id="g58">
            <circle
   cx="17"
   cy="41"
   r="3"
   id="circle56" />
        </g>
    </g><path
     d="M64,0L64,64L-0,64L-0,0L64,0ZM4,10L4,60L8,60L8,10L4,10ZM52,10L12,10L12,60L52,60L52,10ZM56,10L56,60L60,60L60,10L56,10ZM24.952,8.362L24.954,8.364L29.904,3.414L28.49,2L24.952,5.538L21.414,2L20,3.414L24.95,8.364L24.952,8.362ZM39.048,1.82L39.05,1.818L44,6.768L42.586,8.182L39.048,4.644L35.51,8.182L34.096,6.768L39.046,1.818L39.048,1.82Z"
     id="path62" /></g>
</svg>
