<?xml version="1.0" encoding="UTF-8" standalone="no"?>
<svg
   xmlns:dc="http://purl.org/dc/elements/1.1/"
   xmlns:cc="http://creativecommons.org/ns#"
   xmlns:rdf="http://www.w3.org/1999/02/22-rdf-syntax-ns#"
   xmlns:svg="http://www.w3.org/2000/svg"
   xmlns="http://www.w3.org/2000/svg"
   xmlns:sodipodi="http://sodipodi.sourceforge.net/DTD/sodipodi-0.dtd"
   xmlns:inkscape="http://www.inkscape.org/namespaces/inkscape"
   width="100%"
   height="100%"
   viewBox="0 0 64 64"
   version="1.1"
   xml:space="preserve"
   style="fill-rule:evenodd;clip-rule:evenodd;stroke-linejoin:round;stroke-miterlimit:2;"
   id="svg4"
   sodipodi:docname="totem.svg.2021_02_08_11_41_20.0.svg"
   inkscape:version="1.0.1 (3bc2e813f5, 2020-09-07)"><style
   id="style7">
.path2 { 
    fill:#000000;
    stroke:#FFFFFF;
    stroke-width:0px;
}
</style><metadata
   id="metadata10"><rdf:RDF><cc:Work
       rdf:about=""><dc:format>image/svg+xml</dc:format><dc:type
         rdf:resource="http://purl.org/dc/dcmitype/StillImage" /><dc:title /></cc:Work></rdf:RDF></metadata><defs
   id="defs8" /><sodipodi:namedview
   pagecolor="#ffffff"
   bordercolor="#666666"
   borderopacity="1"
   objecttolerance="10"
   gridtolerance="10"
   guidetolerance="10"
   inkscape:pageopacity="0"
   inkscape:pageshadow="2"
   inkscape:window-width="1920"
   inkscape:window-height="1017"
   id="namedview6"
   showgrid="false"
   inkscape:zoom="13.28125"
   inkscape:cx="28.235294"
   inkscape:cy="32"
   inkscape:window-x="-8"
   inkscape:window-y="-8"
   inkscape:window-maximized="1"
   inkscape:current-layer="svg4"
   inkscape:document-rotation="0" />
    <path
   d="M48,0.025L48.052,0.025L48.095,0.026L48.146,0.027L48.196,0.029L48.234,0.031L48.272,0.034L48.31,0.037L48.348,0.04L48.385,0.043L48.423,0.047L48.461,0.051L48.498,0.055L48.536,0.06L48.573,0.065L48.61,0.071L48.648,0.077L48.685,0.083L48.722,0.09L48.759,0.097L48.796,0.104L48.832,0.112L48.869,0.119L48.906,0.128L48.942,0.136L48.991,0.148L49.039,0.161L49.087,0.174L49.135,0.188L49.182,0.202L49.229,0.217L49.276,0.233L49.323,0.249L49.375,0.267L49.421,0.285L49.467,0.302L49.512,0.32L49.557,0.339L49.602,0.358L49.646,0.378L49.69,0.398L49.734,0.419L49.778,0.441L49.821,0.462L49.853,0.479L49.885,0.496L49.917,0.513L49.949,0.531L49.981,0.549L50.012,0.567L50.043,0.585L50.074,0.604L50.105,0.623L50.136,0.642L50.166,0.661L50.196,0.681L50.226,0.701L50.256,0.721L50.286,0.742L50.316,0.763L50.355,0.791L50.393,0.819L50.432,0.848L50.47,0.878L50.507,0.908L50.544,0.938L50.581,0.969L50.618,1L50.654,1.032L50.69,1.064L50.725,1.096L50.76,1.129L50.794,1.163L50.828,1.196L50.862,1.23L50.899,1.269L50.932,1.304L50.964,1.339L50.996,1.374L51.027,1.41L51.058,1.447L51.089,1.483L51.119,1.52L51.149,1.558L51.178,1.596L51.207,1.634L51.235,1.672L51.263,1.711L51.291,1.751L51.318,1.79L51.345,1.83L51.371,1.871L51.397,1.911L51.416,1.942L51.434,1.973L51.453,2.004L51.471,2.036L51.495,2.078L51.518,2.12L51.541,2.163L51.564,2.206L51.585,2.249L51.607,2.293L51.628,2.337L51.648,2.382L51.668,2.426L51.687,2.471L51.706,2.517L51.724,2.562L51.742,2.608L51.759,2.654L51.776,2.701L51.794,2.753L51.809,2.8L51.824,2.847L51.838,2.894L51.852,2.942L51.865,2.989L51.874,3.025L51.883,3.061L51.892,3.097L51.9,3.134L51.908,3.17L51.916,3.206L51.924,3.243L51.931,3.28L51.938,3.317L51.944,3.354L51.95,3.391L51.956,3.428L51.961,3.465L51.966,3.503L51.971,3.54L51.975,3.578L51.979,3.616L51.983,3.654L51.986,3.692L51.989,3.73L51.992,3.768L51.994,3.806L51.996,3.845L51.998,3.883L51.999,3.922L52,3.973L52,4.025L52,47C52,48.326 51.473,49.598 50.536,50.536C49.598,51.473 48.326,52 47,52L46.028,52L46.028,58L52.068,60L52.068,64L12.068,64L12.068,60L12.091,60L18,58L18,60L18,52L17,52C15.674,52 14.402,51.473 13.464,50.536C12.527,49.598 12,48.326 12,47L12,4.025L12,3.973L12.001,3.93L12.003,3.879L12.005,3.829L12.007,3.791L12.009,3.753L12.012,3.715L12.015,3.677L12.018,3.639L12.022,3.602L12.026,3.564L12.031,3.526L12.036,3.489L12.041,3.451L12.046,3.414L12.052,3.377L12.058,3.34L12.065,3.302L12.072,3.265L12.079,3.229L12.087,3.192L12.095,3.155L12.106,3.106L12.118,3.058L12.13,3.009L12.143,2.961L12.156,2.913L12.171,2.866L12.185,2.818L12.202,2.765L12.218,2.719L12.234,2.672L12.251,2.626L12.269,2.581L12.286,2.535L12.305,2.49L12.324,2.445L12.343,2.401L12.363,2.356L12.379,2.323L12.394,2.291L12.41,2.258L12.427,2.225L12.443,2.193L12.46,2.161L12.477,2.129L12.494,2.097L12.512,2.065L12.53,2.034L12.548,2.002L12.567,1.971L12.585,1.94L12.604,1.91L12.624,1.879L12.643,1.849L12.663,1.818L12.683,1.788L12.703,1.758L12.724,1.729L12.745,1.699L12.766,1.67L12.795,1.631L12.824,1.593L12.853,1.555L12.883,1.518L12.913,1.48L12.944,1.444L12.975,1.407L13.007,1.371L13.039,1.335L13.072,1.3L13.105,1.265L13.138,1.23L13.172,1.196L13.206,1.163L13.244,1.126L13.279,1.093L13.314,1.061L13.35,1.029L13.386,0.997L13.422,0.966L13.459,0.936L13.496,0.906L13.533,0.876L13.571,0.847L13.609,0.818L13.648,0.789L13.687,0.761L13.726,0.734L13.766,0.706L13.806,0.68L13.846,0.654L13.887,0.628L13.928,0.603L13.969,0.578L14.011,0.553L14.053,0.53L14.096,0.506L14.139,0.483L14.182,0.461L14.225,0.439L14.269,0.418L14.313,0.397L14.358,0.376L14.402,0.357L14.447,0.337L14.493,0.318L14.538,0.3L14.59,0.28L14.636,0.263L14.682,0.247L14.729,0.231L14.775,0.216L14.822,0.201L14.869,0.187L14.917,0.173L14.953,0.163L14.988,0.154L15.024,0.145L15.06,0.136L15.097,0.127L15.133,0.119L15.169,0.111L15.206,0.104L15.243,0.096L15.28,0.089L15.317,0.083L15.354,0.077L15.391,0.071L15.428,0.065L15.466,0.06L15.503,0.055L15.541,0.051L15.578,0.047L15.616,0.043L15.654,0.04L15.692,0.036L15.73,0.034L15.769,0.031L15.807,0.029L15.845,0.028L15.884,0.026L15.935,0.025L15.987,0.025L16,0.025L48,0.025ZM16,45L48,45L48,4.025L16,4.025L16,45Z"
   id="path2"
   style=""
   class="path2" />
</svg>
