<?xml version="1.0" encoding="UTF-8" standalone="no"?>
<svg xmlns:dc="http://purl.org/dc/elements/1.1/" xmlns:cc="http://creativecommons.org/ns#"
   xmlns:rdf="http://www.w3.org/1999/02/22-rdf-syntax-ns#" xmlns:svg="http://www.w3.org/2000/svg"
   xmlns="http://www.w3.org/2000/svg" xmlns:sodipodi="http://sodipodi.sourceforge.net/DTD/sodipodi-0.dtd"
   xmlns:inkscape="http://www.inkscape.org/namespaces/inkscape" width="100%" height="100%" viewBox="0 0 64 64"
   version="1.1" xml:space="preserve"
   style="fill-rule:evenodd;clip-rule:evenodd;stroke-linejoin:round;stroke-miterlimit:2;" id="svg70"
   sodipodi:docname="parking-info.svg" inkscape:version="1.0.1 (3bc2e813f5, 2020-09-07)">
   <style id="style78">
      #group1 {
         stroke-width: 0px;
         fill: #000000;
         stroke: #FFFFFF;
      }
   </style>
   <metadata id="metadata76">
      <rdf:RDF>
         <cc:Work rdf:about="">
            <dc:format>image/svg+xml</dc:format>
            <dc:type rdf:resource="http://purl.org/dc/dcmitype/StillImage" />
         </cc:Work>
      </rdf:RDF>
   </metadata>
   <defs id="defs74" />
   <sodipodi:namedview pagecolor="#ffffff" bordercolor="#666666" borderopacity="1" objecttolerance="10"
      gridtolerance="10" guidetolerance="10" inkscape:pageopacity="0" inkscape:pageshadow="2"
      inkscape:window-width="1920" inkscape:window-height="1017" id="namedview72" showgrid="false"
      inkscape:zoom="13.28125" inkscape:cx="32" inkscape:cy="32" inkscape:window-x="-8" inkscape:window-y="-8"
      inkscape:window-maximized="1" inkscape:current-layer="svg70" />
















   <g id="group1" style="">
      <g transform="matrix(1.06667,0,0,1,-2.13333,-2)" id="g4">
         <rect x="2" y="2" width="60" height="4" id="rect2" />
      </g>
      <g transform="matrix(0.466667,0,0,2.07619,17.0667,1.84762)" id="g8">
         <rect x="2" y="2" width="60" height="4" id="rect6" />
      </g>
      <g transform="matrix(0.0666667,0,0,1,19.8667,1)" id="g12">
         <rect x="2" y="2" width="60" height="4" id="rect10" />
      </g>
      <g transform="matrix(0.0666667,0,0,1,39.8667,1)" id="g16">
         <rect x="2" y="2" width="60" height="4" id="rect14" />
      </g>
      <g transform="matrix(1,0,0,1,-28,-2)" id="g20">
         <text x="52.767px" y="13.899px"
            style="font-family:'Verdana-Bold', 'Verdana', sans-serif;font-weight:700;font-size:5px;fill:white;"
            id="text18">INFO</text>
      </g>
      <g transform="matrix(1.06667,0,0,1,-2.13333,58)" id="g24">
         <rect x="2" y="2" width="60" height="4" id="rect22" />
      </g>
      <g transform="matrix(0.4,0,0,0.5,31.2,45)" id="g28">
         <rect x="2" y="2" width="60" height="4" id="rect26" />
      </g>
      <g transform="matrix(1,0,0,1,30,2)" id="g32">
         <path d="M2,34L2,30L22,32L14,20L2,20L2,16L16,16L26,32L26,52L2,52L2,48L22,48L22,36L2,34Z" id="path30" />
      </g>
      <g transform="matrix(1,0,0,1,30,2)" id="g36">
         <path d="M24,50L16,50L16,56C16,57.105 16.895,58 18,58L22,58C23.105,58 24,57.105 24,56L24,50Z" id="path34" />
      </g>
      <g transform="matrix(1,0,0,1,27,1)" id="g40">
         <circle cx="17" cy="41" r="3" id="circle38" />
      </g>
      <g transform="matrix(0.666667,0,0,0.666667,37.6667,14.6667)" id="g44">
         <circle cx="17" cy="41" r="3" id="circle42" />
      </g>
      <g transform="matrix(-0.4,0,0,0.5,32.8,45)" id="g48">
         <rect x="2" y="2" width="60" height="4" id="rect46" />
      </g>
      <g transform="matrix(-1,0,0,1,34,2)" id="g52">
         <path d="M2,34L2,30L22,32L14,20L2,20L2,16L16,16L26,32L26,52L2,52L2,48L22,48L22,36L2,34Z" id="path50" />
      </g>
      <g transform="matrix(-1,0,0,1,34,2)" id="g56">
         <path d="M24,50L16,50L16,56C16,57.105 16.895,58 18,58L22,58C23.105,58 24,57.105 24,56L24,50Z" id="path54" />
      </g>
      <g transform="matrix(-1,0,0,1,37,1)" id="g60">
         <circle cx="17" cy="41" r="3" id="circle58" />
      </g>
      <g transform="matrix(-0.666667,0,0,0.666667,26.3333,14.6667)" id="g64">
         <circle cx="17" cy="41" r="3" id="circle62" />
      </g>
      <g transform="matrix(-1.5,0,0,1.5,48,-34)" id="g68">
         <circle cx="17" cy="41" r="3" id="circle66" />
      </g>
   </g>
</svg>